<svg xmlns="http://www.w3.org/2000/svg" xmlns:xlink="http://www.w3.org/1999/xlink" viewBox="0 0 196 196"><defs><style>.cls-1{fill:url(#linear-gradient);}.cls-2,.cls-3{fill:#fff;stroke:#fff;stroke-miterlimit:10;}.cls-3{stroke-width:4px;}</style><linearGradient id="linear-gradient" x1="98" y1="0.96" x2="98" y2="196.96" gradientUnits="userSpaceOnUse"><stop offset="0" stop-color="#22b573"/><stop offset="1" stop-color="#00b0ff"/></linearGradient></defs><title>Color App Icon</title><g id="Layer_2" data-name="Layer 2"><g id="Layer_1-2" data-name="Layer 1"><rect class="cls-1" width="196" height="196" rx="61.33" ry="61.33"/><path class="cls-2" d="M110.81,68.71l9.84-8.46-7.45-6.4-9.84,8.46V50.42H92.72V62.08l-9.57-8.23-7.44,6.4,9.57,8.46H71.45v9.14h53.18V68.71Z"/><path class="cls-2" d="M60.81,87.18H92.72v18.29H60.81Z"/><path class="cls-2" d="M60.81,114.61H92.72V132.9H60.81Z"/><path class="cls-2" d="M103.36,87.18h31.92v18.29H103.36Z"/><path class="cls-2" d="M103.36,114.61h31.92V132.9H103.36Z"/><path class="cls-3" d="M97.92,171.58a73.52,73.52,0,0,1-31.18-140,73.52,73.52,0,0,1,62.52,133.08,72.93,72.93,0,0,1-28.36,6.9C99.91,171.56,98.91,171.58,97.92,171.58ZM98,32.33c-.87,0-1.75,0-2.63.05A65.76,65.76,0,0,0,98,163.84c.87,0,1.75,0,2.63-.06A65.75,65.75,0,0,0,98,32.33Z"/><polygon class="cls-2" points="98 187.47 59.5 162.47 136.5 162.47 98 187.47"/></g></g></svg>