<svg xmlns="http://www.w3.org/2000/svg" viewBox="0 0 657.75 184.39"><defs><style>.cls-1{font-size:120px;}.cls-1,.cls-2,.cls-5,.cls-6{fill:#fff;}.cls-1,.cls-2{font-family:LeagueSpartan-Bold, League Spartan;font-weight:700;}.cls-2{font-size:35px;}.cls-3{letter-spacing:-0.08em;}.cls-4{letter-spacing:-0.09em;}.cls-5,.cls-6{stroke:#fff;stroke-miterlimit:10;}.cls-6{stroke-width:4px;}</style></defs><title>White Full Logo</title><g id="Layer_2" data-name="Layer 2"><g id="Layer_1-2" data-name="Layer 1"><text class="cls-1" transform="translate(164.75 109.59)">bundle</text><text class="cls-2" transform="translate(167.75 159.49)">SECURE PEER DEL<tspan class="cls-3" x="315.55" y="0">I</tspan><tspan x="323.36" y="0">VE</tspan><tspan class="cls-4" x="371.1" y="0">R</tspan><tspan x="393.01" y="0">Y</tspan></text><path class="cls-5" d="M88.31,46.12l9.84-8.45-7.45-6.4-9.84,8.46V27.84H70.22V39.49l-9.57-8.22-7.44,6.4,9.57,8.45H49v9.15h53.18V46.12Z"/><path class="cls-5" d="M38.31,64.6H70.22V82.89H38.31Z"/><path class="cls-5" d="M38.31,92H70.22v18.28H38.31Z"/><path class="cls-5" d="M80.86,64.6h31.92V82.89H80.86Z"/><path class="cls-5" d="M80.86,92h31.92v18.28H80.86Z"/><path class="cls-6" d="M75.42,149A73.47,73.47,0,0,1,21.52,25.62,73.5,73.5,0,1,1,106.76,142a72.93,72.93,0,0,1-28.36,6.9C77.41,149,76.41,149,75.42,149ZM75.53,9.74c-.87,0-1.75,0-2.63.06a65.76,65.76,0,0,0,2.57,131.46c.87,0,1.75,0,2.63-.06A65.76,65.76,0,0,0,75.53,9.74Z"/><polygon class="cls-5" points="75.5 164.89 37 139.89 114 139.89 75.5 164.89"/></g></g></svg>