<svg xmlns="http://www.w3.org/2000/svg" xmlns:xlink="http://www.w3.org/1999/xlink" viewBox="0 0 692 233"><defs><style>.cls-1{fill:url(#linear-gradient);}.cls-2{font-size:120px;}.cls-2,.cls-3,.cls-6,.cls-7{fill:#fff;}.cls-2,.cls-3{font-family:LeagueSpartan-Bold, League Spartan;font-weight:700;}.cls-3{font-size:35px;}.cls-4{letter-spacing:-0.08em;}.cls-5{letter-spacing:-0.09em;}.cls-6,.cls-7{stroke:#fff;stroke-miterlimit:10;}.cls-7{stroke-width:4px;}</style><linearGradient id="linear-gradient" x1="337.5" y1="1.14" x2="337.5" y2="234.14" gradientUnits="userSpaceOnUse"><stop offset="0" stop-color="#22b573"/><stop offset="1" stop-color="#00b0ff"/></linearGradient></defs><title>Full Color Logo</title><g id="Layer_2" data-name="Layer 2"><g id="Layer_1-2" data-name="Layer 1"><rect class="cls-1" width="675" height="233" rx="61.33" ry="61.33"/><text class="cls-2" transform="translate(199 143.2)">bundle</text><text class="cls-3" transform="translate(202 193.1)">SECURE PEER DEL<tspan class="cls-4" x="315.55" y="0">I</tspan><tspan x="323.36" y="0">VE</tspan><tspan class="cls-5" x="371.1" y="0">R</tspan><tspan x="393.01" y="0">Y</tspan></text><path class="cls-6" d="M122.56,79.73l9.84-8.45L125,64.87l-9.84,8.46V61.45H104.47V73.1L94.9,64.87l-7.44,6.41L97,79.73H83.2v9.14h53.18V79.73Z"/><path class="cls-6" d="M72.56,98.21h31.91V116.5H72.56Z"/><path class="cls-6" d="M72.56,125.64h31.91v18.28H72.56Z"/><path class="cls-6" d="M115.11,98.21H147V116.5H115.11Z"/><path class="cls-6" d="M115.11,125.64H147v18.28H115.11Z"/><path class="cls-7" d="M109.67,182.61a73.52,73.52,0,0,1-31.18-140A73.52,73.52,0,0,1,141,175.65a72.93,72.93,0,0,1-28.36,6.9C111.66,182.59,110.66,182.61,109.67,182.61Zm.11-139.26c-.87,0-1.75,0-2.63,0a65.76,65.76,0,0,0,2.57,131.46c.87,0,1.75,0,2.63-.05a65.76,65.76,0,0,0-2.57-131.46Z"/><polygon class="cls-6" points="109.75 198.5 71.25 173.5 148.25 173.5 109.75 198.5"/></g></g></svg>